<svg width="20" height="20" viewBox="0 0 20 20" version="1.1" xmlns="http://www.w3.org/2000/svg" xmlns:xlink="http://www.w3.org/1999/xlink">
<title> X Copy</title>
<desc>Created using Figma</desc>
<g id="Canvas" transform="translate(-7495 269)">
<rect x="7495" y="-269" width="20" height="20" fill="#FFFFFF"/>
<clipPath id="clip-0" clip-rule="evenodd">
<path d="M 7472 -298L 8496 -298L 8496 724L 7472 724L 7472 -298Z" fill="#FFFFFF"/>
</clipPath>
<g id="Desktop / Landing page (menu enabled)" clip-path="url(#clip-0)">
<path d="M 7472 -298L 8496 -298L 8496 724L 7472 724L 7472 -298Z" fill="#FFFFFF"/>
<g id="Nav / Desktop Menu (enabled)">
<g id="Rectangle 11 Copy 2">
<use xlink:href="#path0_fill" transform="translate(7472 -298)" fill="#FFFFFF"/>
</g>
<g id="Symbol / X Copy">
<g id="Combined Shape">
<use xlink:href="#path1_fill" transform="translate(7495.59 -268.408)" fill="#292929"/>
</g>
</g>
</g>
</g>
</g>
<defs>
<path id="path0_fill" fill-rule="evenodd" d="M 0 0L 1024 0L 1024 74L 0 74L 0 0Z"/>
<path id="path1_fill" fill-rule="evenodd" d="M 16.0758 0.418419C 16.6339 -0.139473 17.5382 -0.139473 18.0963 0.418419C 18.6539 0.976311 18.6539 1.88082 18.0963 2.43871L 11.278 9.25726L 18.0963 16.0758C 18.6544 16.6337 18.6544 17.5382 18.0963 18.0961C 17.5387 18.654 16.6339 18.654 16.0758 18.0961L 9.25745 11.2777L 2.43909 18.0961C 1.88098 18.654 0.976196 18.654 0.418579 18.0961C -0.139526 17.5382 -0.139526 16.6337 0.418579 16.0758L 7.23694 9.25726L 0.418579 2.43871C -0.139038 1.88082 -0.139038 0.976311 0.418579 0.418419C 0.976685 -0.139473 1.88098 -0.139473 2.43909 0.418419L 9.25745 7.23684L 16.0758 0.418419Z"/>
</defs>
</svg>
