<?xml version="1.0" encoding="UTF-8" standalone="no"?>
<svg width="7px" height="13px" viewBox="0 0 7 13" version="1.1" xmlns="http://www.w3.org/2000/svg" xmlns:xlink="http://www.w3.org/1999/xlink">
    <!-- Generator: Sketch 46.2 (44496) - http://www.bohemiancoding.com/sketch -->
    <title>Page 1 Copy 2</title>
    <desc>Created with Sketch.</desc>
    <defs>
        <polygon id="path-1" points="3.5 13 0 13 0 0 3.5 0 7 0 7 13"></polygon>
    </defs>
    <g id="Design" stroke="none" stroke-width="1" fill="none" fill-rule="evenodd">
        <g id="Desktop-/-Landing-page-(hover)" transform="translate(-723.000000, -1682.000000)">
            <g id="Group-2" transform="translate(0.000000, 1451.000000)">
                <g id="Page-1-Copy-2" transform="translate(723.000000, 231.000000)">
                    <mask id="mask-2" fill="white">
                        <use xlink:href="#path-1"></use>
                    </mask>
                    <g id="Clip-2"></g>
                    <path d="M4.54358251,13 L4.54358251,7.07014286 L6.60741121,7.07014286 L6.91652776,4.75892857 L4.54358251,4.75892857 L4.54358251,3.28342857 C4.54358251,2.61448571 4.73619695,2.15855714 5.73104244,2.15855714 L7,2.15781429 L7,0.091 C6.78045903,0.0627714286 6.02741377,0 5.15104501,0 C3.32147711,0 2.06903449,1.07695714 2.06903449,3.05481429 L2.06903449,4.75892857 L0,4.75892857 L0,7.07014286 L2.06903449,7.07014286 L2.06903449,13 L4.54358251,13 Z" id="Fill-1" fill="#FFFFFF" mask="url(#mask-2)"></path>
                </g>
            </g>
        </g>
    </g>
</svg>