<?xml version="1.0" encoding="UTF-8" standalone="no"?>
<svg width="25px" height="25px" viewBox="0 0 25 25" version="1.1" xmlns="http://www.w3.org/2000/svg" xmlns:xlink="http://www.w3.org/1999/xlink">
    <title>symbol / search</title>
    <desc>Created with The Digital Hyve.</desc>
    <defs></defs>
    <g id="Symbols" stroke="none" stroke-width="1" fill="none" fill-rule="evenodd">
        <g id="Nav-/-Desktop" transform="translate(-979.000000, -29.000000)" fill="#292929">
            <g id="symbol-/-search" transform="translate(979.000000, 29.000000)">
                <g id="search">
                    <rect id="Rectangle-Copy-7" transform="translate(19.590904, 19.590904) rotate(45.000000) translate(-19.590904, -19.590904) " x="13.6698517" y="18.2751149" width="11.8421053" height="2.63157895"></rect>
                    <path d="M9.86842105,19.7368421 C4.4182426,19.7368421 0,15.3185995 0,9.86842105 C0,4.4182426 4.4182426,0 9.86842105,0 C15.3185995,0 19.7368421,4.4182426 19.7368421,9.86842105 C19.7368421,15.3185995 15.3185995,19.7368421 9.86842105,19.7368421 Z M9.86842105,17.1052632 C13.8652186,17.1052632 17.1052632,13.8652186 17.1052632,9.86842105 C17.1052632,5.87162352 13.8652186,2.63157895 9.86842105,2.63157895 C5.87162352,2.63157895 2.63157895,5.87162352 2.63157895,9.86842105 C2.63157895,13.8652186 5.87162352,17.1052632 9.86842105,17.1052632 Z" id="Oval-2" fill-rule="nonzero"></path>
                </g>
            </g>
        </g>
    </g>
</svg>