<svg width="25" height="25" viewBox="0 0 25 25" version="1.1" xmlns="http://www.w3.org/2000/svg" xmlns:xlink="http://www.w3.org/1999/xlink">
<title> search</title>
<desc>Created using Figma</desc>
<g id="Canvas" transform="translate(-2271 28)">
<g id="symbol / search">
<g id="search copy">
<g id="Rectangle Copy 7">
<use xlink:href="#path0_fill" transform="matrix(0.707107 0.707107 -0.707107 0.707107 2287.33 -13.5263)" fill="#AC162C"/>
</g>
<g id="Oval 2">
<use xlink:href="#path1_fill" transform="translate(2271 -28)" fill="#AC162C"/>
</g>
</g>
</g>
</g>
<defs>
<path id="path0_fill" fill-rule="evenodd" d="M 0 0L 11.8421 0L 11.8421 2.63158L 0 2.63158L 0 0Z"/>
<path id="path1_fill" fill-rule="evenodd" d="M 0 9.86842C 0 15.3186 4.41821 19.7368 9.86841 19.7368C 15.3186 19.7368 19.7368 15.3186 19.7368 9.86842C 19.7368 4.41824 15.3186 0 9.86841 0C 4.41821 0 0 4.41824 0 9.86842ZM 17.1052 9.86842C 17.1052 13.8652 13.8652 17.1053 9.86841 17.1053C 5.87158 17.1053 2.63159 13.8652 2.63159 9.86842C 2.63159 5.87162 5.87158 2.63158 9.86841 2.63158C 13.8652 2.63158 17.1052 5.87162 17.1052 9.86842Z"/>
</defs>
</svg>
